<mxfile host="app.diagrams.net" modified="2023-06-26T17:36:20.512Z" agent="Mozilla/5.0 (X11; Ubuntu; Linux x86_64; rv:109.0) Gecko/20100101 Firefox/114.0" etag="LGUdrPwxL_gA-1lnqghA" version="21.5.0" type="device">
  <diagram name="Page-1" id="CpT_m-j7Am7sjx0DqRG0">
    <mxGraphModel dx="2291" dy="2400" grid="1" gridSize="10" guides="1" tooltips="1" connect="1" arrows="1" fold="1" page="1" pageScale="1" pageWidth="850" pageHeight="1100" math="0" shadow="0">
      <root>
        <mxCell id="0" />
        <mxCell id="1" parent="0" />
        <mxCell id="8Aw4LN_MrDwei5XwI4oN-105" value="AutowareSimulation (Scene)" style="rounded=1;whiteSpace=wrap;html=1;labelPosition=center;verticalLabelPosition=top;align=center;verticalAlign=bottom;fontStyle=1;fontSize=17;glass=0;arcSize=5;fillColor=#f5f5f5;fontColor=#000000;strokeColor=#666666;strokeWidth=1;" vertex="1" parent="1">
          <mxGeometry x="120" y="-50" width="1070" height="380" as="geometry" />
        </mxCell>
        <mxCell id="8Aw4LN_MrDwei5XwI4oN-106" value="&lt;div style=&quot;font-size: 15px;&quot;&gt;Environment&lt;/div&gt;" style="rounded=1;whiteSpace=wrap;html=1;labelPosition=center;verticalLabelPosition=top;align=center;verticalAlign=bottom;labelBackgroundColor=none;labelBorderColor=none;horizontal=1;fontStyle=1;fontSize=15;glass=0;arcSize=5;strokeWidth=1;strokeColor=#000000;fillColor=#fff2cc;" vertex="1" parent="1">
          <mxGeometry x="140" y="-20" width="1030" height="160" as="geometry" />
        </mxCell>
        <mxCell id="8Aw4LN_MrDwei5XwI4oN-107" value="Visual Elements (SJK)" style="rounded=1;whiteSpace=wrap;html=1;labelPosition=center;verticalLabelPosition=top;align=center;verticalAlign=bottom;fontSize=14;" vertex="1" parent="1">
          <mxGeometry x="440" y="40" width="150" height="80" as="geometry" />
        </mxCell>
        <mxCell id="8Aw4LN_MrDwei5XwI4oN-108" value="" style="edgeStyle=orthogonalEdgeStyle;rounded=0;orthogonalLoop=1;jettySize=auto;html=1;" edge="1" parent="1" source="8Aw4LN_MrDwei5XwI4oN-109" target="8Aw4LN_MrDwei5XwI4oN-111">
          <mxGeometry relative="1" as="geometry" />
        </mxCell>
        <mxCell id="8Aw4LN_MrDwei5XwI4oN-109" value="StopLines" style="rounded=1;whiteSpace=wrap;html=1;fillColor=#dae8fc;strokeColor=#6c8ebf;" vertex="1" parent="1">
          <mxGeometry x="620" y="60" width="110" height="40" as="geometry" />
        </mxCell>
        <mxCell id="8Aw4LN_MrDwei5XwI4oN-110" value="" style="edgeStyle=orthogonalEdgeStyle;rounded=0;orthogonalLoop=1;jettySize=auto;html=1;" edge="1" parent="1" source="8Aw4LN_MrDwei5XwI4oN-111" target="8Aw4LN_MrDwei5XwI4oN-116">
          <mxGeometry relative="1" as="geometry" />
        </mxCell>
        <mxCell id="8Aw4LN_MrDwei5XwI4oN-111" value="&lt;div&gt;TrafficLanes&lt;/div&gt;" style="rounded=1;whiteSpace=wrap;html=1;fillColor=#dae8fc;strokeColor=#6c8ebf;" vertex="1" parent="1">
          <mxGeometry x="760" y="60" width="110" height="40" as="geometry" />
        </mxCell>
        <mxCell id="8Aw4LN_MrDwei5XwI4oN-112" value="&lt;div&gt;TrafficIntersections&lt;/div&gt;" style="rounded=1;whiteSpace=wrap;html=1;fillColor=#dae8fc;strokeColor=#6c8ebf;" vertex="1" parent="1">
          <mxGeometry x="300" y="60" width="110" height="40" as="geometry" />
        </mxCell>
        <mxCell id="8Aw4LN_MrDwei5XwI4oN-113" value="" style="edgeStyle=orthogonalEdgeStyle;rounded=0;orthogonalLoop=1;jettySize=auto;html=1;" edge="1" parent="1" source="8Aw4LN_MrDwei5XwI4oN-115" target="8Aw4LN_MrDwei5XwI4oN-112">
          <mxGeometry relative="1" as="geometry" />
        </mxCell>
        <mxCell id="8Aw4LN_MrDwei5XwI4oN-114" value="" style="edgeStyle=orthogonalEdgeStyle;rounded=0;orthogonalLoop=1;jettySize=auto;html=1;" edge="1" parent="1" source="8Aw4LN_MrDwei5XwI4oN-115" target="8Aw4LN_MrDwei5XwI4oN-109">
          <mxGeometry relative="1" as="geometry" />
        </mxCell>
        <mxCell id="8Aw4LN_MrDwei5XwI4oN-115" value="TrafficLights" style="rounded=1;whiteSpace=wrap;html=1;fillColor=#dae8fc;strokeColor=#6c8ebf;fillStyle=auto;" vertex="1" parent="1">
          <mxGeometry x="460" y="60" width="110" height="40" as="geometry" />
        </mxCell>
        <mxCell id="8Aw4LN_MrDwei5XwI4oN-116" value="&lt;div&gt;TrafficSimulator&lt;/div&gt;" style="rounded=1;whiteSpace=wrap;html=1;fillColor=#dae8fc;strokeColor=#6c8ebf;" vertex="1" parent="1">
          <mxGeometry x="900" y="60" width="110" height="40" as="geometry" />
        </mxCell>
        <mxCell id="8Aw4LN_MrDwei5XwI4oN-117" value="" style="edgeStyle=orthogonalEdgeStyle;rounded=0;orthogonalLoop=1;jettySize=auto;html=1;" edge="1" parent="1" source="8Aw4LN_MrDwei5XwI4oN-118" target="8Aw4LN_MrDwei5XwI4oN-116">
          <mxGeometry relative="1" as="geometry" />
        </mxCell>
        <mxCell id="8Aw4LN_MrDwei5XwI4oN-118" value="NPCVehicles" style="rounded=1;whiteSpace=wrap;html=1;fillColor=#e1d5e7;strokeColor=#9673a6;fillStyle=hatch;" vertex="1" parent="1">
          <mxGeometry x="1040" y="60" width="110" height="40" as="geometry" />
        </mxCell>
        <mxCell id="8Aw4LN_MrDwei5XwI4oN-119" value="" style="edgeStyle=orthogonalEdgeStyle;rounded=0;orthogonalLoop=1;jettySize=auto;html=1;" edge="1" parent="1" source="8Aw4LN_MrDwei5XwI4oN-121" target="8Aw4LN_MrDwei5XwI4oN-116">
          <mxGeometry x="-0.7143" y="5" relative="1" as="geometry">
            <mxPoint as="offset" />
          </mxGeometry>
        </mxCell>
        <mxCell id="8Aw4LN_MrDwei5XwI4oN-120" value="" style="edgeStyle=orthogonalEdgeStyle;rounded=0;orthogonalLoop=1;jettySize=auto;html=1;" edge="1" parent="1" source="8Aw4LN_MrDwei5XwI4oN-121" target="8Aw4LN_MrDwei5XwI4oN-126">
          <mxGeometry relative="1" as="geometry" />
        </mxCell>
        <mxCell id="8Aw4LN_MrDwei5XwI4oN-121" value="EgoVehicle" style="rounded=1;whiteSpace=wrap;html=1;fillColor=#d5e8d4;strokeColor=#82b366;" vertex="1" parent="1">
          <mxGeometry x="900" y="160" width="110" height="40" as="geometry" />
        </mxCell>
        <mxCell id="8Aw4LN_MrDwei5XwI4oN-122" value="&lt;div&gt;NPCPedestrians&lt;/div&gt;" style="rounded=1;whiteSpace=wrap;html=1;fillColor=#e1d5e7;strokeColor=#9673a6;fillStyle=hatch;" vertex="1" parent="1">
          <mxGeometry x="160" y="60" width="110" height="40" as="geometry" />
        </mxCell>
        <mxCell id="8Aw4LN_MrDwei5XwI4oN-123" value="Directional Light" style="rounded=0;whiteSpace=wrap;html=1;" vertex="1" parent="1">
          <mxGeometry x="160" width="110" height="40" as="geometry" />
        </mxCell>
        <mxCell id="8Aw4LN_MrDwei5XwI4oN-124" value="&lt;div&gt;Volume&lt;/div&gt;" style="rounded=0;whiteSpace=wrap;html=1;" vertex="1" parent="1">
          <mxGeometry x="300" width="110" height="40" as="geometry" />
        </mxCell>
        <mxCell id="8Aw4LN_MrDwei5XwI4oN-125" value="&lt;div&gt;ClockPublisher&lt;/div&gt;" style="rounded=0;whiteSpace=wrap;html=1;" vertex="1" parent="1">
          <mxGeometry x="760" y="160" width="110" height="40" as="geometry" />
        </mxCell>
        <mxCell id="8Aw4LN_MrDwei5XwI4oN-126" value="MainCamera" style="rounded=0;whiteSpace=wrap;html=1;" vertex="1" parent="1">
          <mxGeometry x="1040" y="160" width="110" height="40" as="geometry" />
        </mxCell>
        <mxCell id="8Aw4LN_MrDwei5XwI4oN-127" value="Canvas" style="rounded=1;whiteSpace=wrap;html=1;" vertex="1" parent="1">
          <mxGeometry x="160" y="160" width="110" height="40" as="geometry" />
        </mxCell>
        <mxCell id="8Aw4LN_MrDwei5XwI4oN-128" value="EventSystem" style="rounded=0;whiteSpace=wrap;html=1;" vertex="1" parent="1">
          <mxGeometry x="300" y="160" width="110" height="40" as="geometry" />
        </mxCell>
        <mxCell id="8Aw4LN_MrDwei5XwI4oN-130" value="ScenarioSimulatorConnector" style="rounded=1;whiteSpace=wrap;html=1;labelPosition=center;verticalLabelPosition=top;align=center;verticalAlign=bottom;fontStyle=1;fontSize=15;arcSize=5;" vertex="1" parent="1">
          <mxGeometry x="320" y="230" width="710" height="80" as="geometry" />
        </mxCell>
        <mxCell id="8Aw4LN_MrDwei5XwI4oN-131" value="ZeroMQ&lt;br&gt;Socket" style="rounded=1;whiteSpace=wrap;html=1;" vertex="1" parent="1">
          <mxGeometry x="340" y="250" width="110" height="40" as="geometry" />
        </mxCell>
        <mxCell id="8Aw4LN_MrDwei5XwI4oN-136" style="edgeStyle=orthogonalEdgeStyle;rounded=0;orthogonalLoop=1;jettySize=auto;html=1;" edge="1" parent="1" source="8Aw4LN_MrDwei5XwI4oN-132" target="8Aw4LN_MrDwei5XwI4oN-126">
          <mxGeometry relative="1" as="geometry" />
        </mxCell>
        <mxCell id="8Aw4LN_MrDwei5XwI4oN-132" value="EgoEntity" style="rounded=1;whiteSpace=wrap;html=1;fillColor=#d5e8d4;strokeColor=#82b366;" vertex="1" parent="1">
          <mxGeometry x="900" y="250" width="110" height="40" as="geometry" />
        </mxCell>
        <mxCell id="8Aw4LN_MrDwei5XwI4oN-133" value="MiscObjectEntities" style="rounded=1;whiteSpace=wrap;html=1;fillColor=#e1d5e7;strokeColor=#9673a6;" vertex="1" parent="1">
          <mxGeometry x="480" y="250" width="110" height="40" as="geometry" />
        </mxCell>
        <mxCell id="8Aw4LN_MrDwei5XwI4oN-134" value="&lt;div&gt;VehicleEntities&lt;/div&gt;" style="rounded=1;whiteSpace=wrap;html=1;fillColor=#e1d5e7;strokeColor=#9673a6;" vertex="1" parent="1">
          <mxGeometry x="760" y="250" width="110" height="40" as="geometry" />
        </mxCell>
        <mxCell id="8Aw4LN_MrDwei5XwI4oN-135" value="PedestrianEntities" style="rounded=1;whiteSpace=wrap;html=1;fillColor=#e1d5e7;strokeColor=#9673a6;" vertex="1" parent="1">
          <mxGeometry x="620" y="250" width="110" height="40" as="geometry" />
        </mxCell>
      </root>
    </mxGraphModel>
  </diagram>
</mxfile>
